<svg width="148" height="223" viewBox="0 0 148 223" fill="none" xmlns="http://www.w3.org/2000/svg">
<path d="M23.5742 147.008H28.4702C29.0622 147.008 29.6782 147.08 30.3182 147.224C30.9742 147.352 31.5662 147.584 32.0942 147.92C32.6382 148.256 33.0782 148.72 33.4142 149.312C33.7662 149.888 33.9422 150.616 33.9422 151.496C33.9422 152.264 33.7982 152.928 33.5102 153.488C33.2382 154.048 32.8622 154.512 32.3822 154.88C31.9182 155.232 31.3742 155.496 30.7502 155.672C30.1422 155.848 29.5022 155.936 28.8302 155.936H25.1582V164H23.5742V147.008ZM25.1582 154.496H28.7582C29.2062 154.496 29.6462 154.448 30.0782 154.352C30.5102 154.24 30.8942 154.072 31.2302 153.848C31.5662 153.608 31.8382 153.296 32.0462 152.912C32.2542 152.528 32.3582 152.056 32.3582 151.496C32.3582 150.952 32.2462 150.488 32.0222 150.104C31.8142 149.72 31.5342 149.408 31.1822 149.168C30.8462 148.912 30.4542 148.728 30.0062 148.616C29.5582 148.504 29.1102 148.448 28.6622 148.448H25.1582V154.496Z" fill="#008179"/>
<path d="M38.9395 154.496H42.2995C43.1315 154.496 43.8035 154.392 44.3155 154.184C44.8435 153.976 45.2515 153.72 45.5395 153.416C45.8275 153.112 46.0195 152.784 46.1155 152.432C46.2275 152.08 46.2835 151.76 46.2835 151.472C46.2835 151.184 46.2275 150.864 46.1155 150.512C46.0195 150.16 45.8275 149.832 45.5395 149.528C45.2515 149.224 44.8435 148.968 44.3155 148.76C43.8035 148.552 43.1315 148.448 42.2995 148.448H38.9395V154.496ZM37.3555 147.008H41.8195C42.0435 147.008 42.3475 147.016 42.7315 147.032C43.1155 147.048 43.5315 147.096 43.9795 147.176C44.4275 147.256 44.8835 147.384 45.3475 147.56C45.8115 147.736 46.2275 147.992 46.5955 148.328C46.9635 148.664 47.2675 149.088 47.5075 149.6C47.7475 150.112 47.8675 150.736 47.8675 151.472C47.8675 152.288 47.7235 152.96 47.4355 153.488C47.1635 154.016 46.8115 154.448 46.3795 154.784C45.9635 155.104 45.4995 155.344 44.9875 155.504C44.4755 155.664 43.9875 155.776 43.5235 155.84L48.4675 164H46.6675L41.8915 155.936H38.9395V164H37.3555V147.008Z" fill="#008179"/>
<path d="M50.478 155.504C50.478 154.208 50.694 153.016 51.126 151.928C51.558 150.84 52.158 149.904 52.926 149.12C53.694 148.32 54.614 147.696 55.686 147.248C56.774 146.8 57.966 146.576 59.262 146.576C60.558 146.576 61.742 146.8 62.814 147.248C63.902 147.696 64.83 148.32 65.598 149.12C66.366 149.904 66.966 150.84 67.398 151.928C67.83 153.016 68.046 154.208 68.046 155.504C68.046 156.8 67.83 158 67.398 159.104C66.966 160.192 66.366 161.136 65.598 161.936C64.83 162.72 63.902 163.336 62.814 163.784C61.742 164.216 60.558 164.432 59.262 164.432C57.966 164.432 56.774 164.216 55.686 163.784C54.614 163.336 53.694 162.72 52.926 161.936C52.158 161.136 51.558 160.192 51.126 159.104C50.694 158 50.478 156.8 50.478 155.504ZM52.062 155.504C52.062 156.56 52.23 157.544 52.566 158.456C52.902 159.368 53.382 160.16 54.006 160.832C54.63 161.504 55.382 162.032 56.262 162.416C57.158 162.8 58.158 162.992 59.262 162.992C60.366 162.992 61.358 162.8 62.238 162.416C63.134 162.032 63.894 161.504 64.518 160.832C65.142 160.16 65.622 159.368 65.958 158.456C66.294 157.544 66.462 156.56 66.462 155.504C66.462 154.448 66.294 153.464 65.958 152.552C65.622 151.64 65.142 150.848 64.518 150.176C63.894 149.504 63.134 148.976 62.238 148.592C61.358 148.208 60.366 148.016 59.262 148.016C58.158 148.016 57.158 148.208 56.262 148.592C55.382 148.976 54.63 149.504 54.006 150.176C53.382 150.848 52.902 151.64 52.566 152.552C52.23 153.464 52.062 154.448 52.062 155.504Z" fill="#008179"/>
<path d="M78.5097 159.008C78.5097 159.52 78.4697 160.088 78.3897 160.712C78.3257 161.336 78.1337 161.928 77.8137 162.488C77.5097 163.032 77.0457 163.496 76.4217 163.88C75.8137 164.248 74.9577 164.432 73.8537 164.432C72.6057 164.432 71.6137 164.12 70.8777 163.496C70.1577 162.856 69.6777 162.008 69.4377 160.952L71.0217 160.664C71.4057 162.216 72.3497 162.992 73.8537 162.992C74.4137 162.992 74.8857 162.904 75.2697 162.728C75.6697 162.536 75.9897 162.28 76.2297 161.96C76.4697 161.64 76.6457 161.264 76.7577 160.832C76.8697 160.384 76.9257 159.904 76.9257 159.392V147.008H78.5097V159.008Z" fill="#008179"/>
<path d="M83.1758 147.008H93.5678V148.448H84.7598V154.496H93.0158V155.936H84.7598V162.56H93.9518V164H83.1758V147.008Z" fill="#008179"/>
<path d="M111.394 161.336C110.578 162.44 109.634 163.232 108.562 163.712C107.49 164.192 106.33 164.432 105.082 164.432C103.786 164.432 102.594 164.216 101.506 163.784C100.434 163.336 99.5143 162.72 98.7463 161.936C97.9783 161.136 97.3783 160.192 96.9463 159.104C96.5143 158 96.2983 156.8 96.2983 155.504C96.2983 154.208 96.5143 153.016 96.9463 151.928C97.3783 150.84 97.9783 149.904 98.7463 149.12C99.5143 148.32 100.434 147.696 101.506 147.248C102.594 146.8 103.786 146.576 105.082 146.576C106.234 146.576 107.306 146.784 108.298 147.2C109.306 147.6 110.186 148.28 110.938 149.24L109.642 150.32C109.114 149.52 108.434 148.936 107.602 148.568C106.786 148.2 105.946 148.016 105.082 148.016C103.978 148.016 102.978 148.208 102.082 148.592C101.202 148.976 100.45 149.504 99.8263 150.176C99.2023 150.848 98.7223 151.64 98.3863 152.552C98.0503 153.464 97.8823 154.448 97.8823 155.504C97.8823 156.56 98.0503 157.544 98.3863 158.456C98.7223 159.368 99.2023 160.16 99.8263 160.832C100.45 161.504 101.202 162.032 102.082 162.416C102.978 162.8 103.978 162.992 105.082 162.992C105.514 162.992 105.962 162.944 106.426 162.848C106.89 162.736 107.338 162.576 107.77 162.368C108.218 162.144 108.642 161.872 109.042 161.552C109.442 161.216 109.794 160.816 110.098 160.352L111.394 161.336Z" fill="#008179"/>
<path d="M118.069 148.448H112.261V147.008H125.461V148.448H119.653V164H118.069V148.448Z" fill="#008179"/>
<path d="M37.8263 222.698C41.2952 222.698 44.3801 222.004 47.0809 220.617C49.8065 219.229 51.9375 217.222 53.4737 214.595V221.583H57.3763V196.569C57.3763 195.132 57.302 193.707 57.1533 192.295C57.0046 190.858 56.7197 189.607 56.2984 188.541C55.3073 185.964 53.5481 183.957 51.0207 182.52C48.5181 181.058 45.4208 180.327 41.7288 180.327C37.3926 180.327 33.837 181.306 31.0618 183.263C28.2866 185.221 26.4407 188.021 25.5239 191.663L29.9096 192.89C31.4459 187.265 35.336 184.453 41.5802 184.453C45.7925 184.453 48.7659 185.456 50.5003 187.463C52.2596 189.47 53.1268 192.506 53.1021 196.569C51.541 196.768 49.6827 197.003 47.5269 197.275C45.3712 197.523 43.1536 197.821 40.874 198.167C38.6192 198.514 36.513 198.898 34.5555 199.32C31.6317 200.013 29.1415 201.265 27.0849 203.074C25.0283 204.882 24 207.484 24 210.879C24 212.985 24.508 214.942 25.5239 216.751C26.5398 218.535 28.076 219.972 30.1326 221.063C32.1892 222.153 34.7538 222.698 37.8263 222.698ZM38.0493 218.758C35.6458 218.758 33.7379 218.362 32.3255 217.569C30.9131 216.776 29.8972 215.772 29.2778 214.558C28.6831 213.344 28.3857 212.13 28.3857 210.916C28.3857 209.281 28.7698 207.93 29.5379 206.865C30.3308 205.799 31.3096 204.957 32.4742 204.337C33.6635 203.718 34.8405 203.259 36.0051 202.962C37.6652 202.541 39.5112 202.182 41.543 201.884C43.5748 201.562 45.5942 201.302 47.6013 201.104C49.6331 200.881 51.4667 200.682 53.1021 200.509C53.1021 201.401 53.0649 202.442 52.9905 203.631C52.941 204.796 52.8295 205.886 52.656 206.902C52.1357 210.495 50.5871 213.369 48.0101 215.525C45.458 217.68 42.1377 218.758 38.0493 218.758Z" fill="#008179"/>
<path d="M67.027 221.583H71.3385V201.698C71.3385 200.063 71.4128 198.39 71.5615 196.681C71.7349 194.946 72.1314 193.299 72.7508 191.738C73.395 190.152 74.3986 188.764 75.7614 187.575C77.2976 186.262 78.9578 185.493 80.7418 185.27C82.5506 185.047 84.2479 185.122 85.8337 185.493V181.442C84.0745 180.947 82.0179 180.922 79.6639 181.368C77.3348 181.814 75.3649 182.768 73.7543 184.23C72.6889 185.147 71.7473 186.323 70.9296 187.761V181.442H67.027V221.583Z" fill="#008179"/>
<path d="M108.535 222.698C116.315 222.698 121.804 219.229 125 212.291L120.763 210.842C119.623 213.344 118 215.252 115.894 216.565C113.813 217.879 111.36 218.535 108.535 218.535C103.901 218.535 100.408 216.987 98.0536 213.889C95.7245 210.767 94.5351 206.642 94.4856 201.513C94.5351 196.483 95.6997 192.394 97.9793 189.247C100.284 186.076 103.802 184.49 108.535 184.49C111.36 184.49 113.862 185.184 116.043 186.571C118.223 187.934 119.821 189.867 120.837 192.369L125 190.846C123.835 187.6 121.779 185.035 118.83 183.152C115.882 181.269 112.462 180.327 108.572 180.327C104.583 180.327 101.213 181.207 98.4625 182.966C95.7121 184.725 93.6183 187.191 92.1812 190.362C90.7441 193.534 89.9883 197.251 89.914 201.513C89.9883 205.675 90.7317 209.355 92.144 212.551C93.5812 215.723 95.6625 218.213 98.3882 220.022C101.139 221.806 104.521 222.698 108.535 222.698Z" fill="#008179"/>
<path fill-rule="evenodd" clip-rule="evenodd" d="M107.084 108.029C136.395 100.176 153.789 70.0478 145.935 40.7371C138.082 11.4263 107.954 -5.96799 78.6431 1.88581C49.7701 9.62232 32.4602 38.9726 39.4568 67.8646C30.3557 75.8657 26.0382 88.6116 29.387 101.109C34.0895 118.66 52.129 129.075 69.6793 124.372C78.1508 122.102 84.9599 116.725 89.2086 109.795C95.0699 110.185 101.094 109.634 107.084 108.029ZM39.7918 69.1782C46.0406 92.4988 66.3896 108.276 89.2086 109.795C93.7619 102.368 95.3748 93.1586 92.9421 84.0798C88.2395 66.5296 70.2 56.1145 52.6498 60.817C47.5973 62.1709 43.1362 64.63 39.4568 67.8646C39.5629 68.3026 39.6746 68.7405 39.7918 69.1782Z" fill="#F2BBCA"/>
<circle cx="11.9459" cy="113.761" r="11.9459" fill="#F2BBCA"/>
<path fill-rule="evenodd" clip-rule="evenodd" d="M0.207031 115.99C8.11516 114.569 15.8306 112.582 23.3111 110.073C23.6877 111.235 23.8912 112.474 23.8912 113.761C23.8912 120.359 18.5429 125.707 11.9453 125.707C6.10961 125.707 1.25126 121.523 0.207031 115.99Z" fill="#008179"/>
<path fill-rule="evenodd" clip-rule="evenodd" d="M31.6016 107.042C38.3641 120.918 54.2119 128.516 69.6796 124.372C78.1511 122.102 84.9601 116.724 89.2089 109.794C95.0701 110.185 101.094 109.634 107.084 108.029C136.395 100.175 153.79 70.0473 145.936 40.7366C142.659 28.509 135.507 18.3552 126.154 11.2432C117.291 34.1866 103.619 54.6859 86.3938 71.4675C89.3826 75.032 91.6591 79.2899 92.9424 84.0793C95.375 93.1581 93.7622 102.368 89.2089 109.794C76.5501 108.952 64.6515 103.721 55.4985 95.2492C47.8992 99.7949 39.9128 103.747 31.6016 107.042Z" fill="#008179"/>
</svg>
